<?xml version="1.0" encoding="utf-8"?>
<!-- Generator: Adobe Illustrator 19.0.0, SVG Export Plug-In . SVG Version: 6.00 Build 0)  -->
<svg version="1.1" id="Layer_1" xmlns="http://www.w3.org/2000/svg" xmlns:xlink="http://www.w3.org/1999/xlink" x="0px" y="0px"
	 viewBox="0 0 50 50" style="enable-background:new 0 0 50 50;" xml:space="preserve">
<style type="text/css">
	.st0{fill:#5D5E5E;}
</style>
<path class="st0" d="M25,49.6c-0.1,0-0.2,0-0.3-0.1L0.5,25.3c-0.1-0.1-0.1-0.2-0.1-0.3c0-0.1,0-0.2,0.1-0.3L24.7,0.5
	c0.1-0.1,0.4-0.1,0.5,0l24.2,24.2c0.1,0.1,0.1,0.2,0.1,0.3c0,0.1,0,0.2-0.1,0.3L29.4,45.4c-0.1,0.1-0.4,0.1-0.5,0L8.8,25.3
	c-0.1-0.1-0.1-0.4,0-0.5l16-16c0.1-0.1,0.4-0.1,0.5,0l16,16c0.1,0.1,0.1,0.4,0,0.5l-12,12c-0.1,0.1-0.4,0.1-0.5,0l-4-4c0,0,0,0,0,0
	l-7.9-7.9c-0.1-0.1-0.1-0.4,0-0.5l7.9-7.9c0.1-0.1,0.4-0.1,0.5,0l7.9,7.9c0.1,0.1,0.1,0.4,0,0.5l-7.7,7.7l3.5,3.5L40.4,25L25,9.6
	L9.6,25l19.6,19.6L48.7,25L25,1.3L1.3,25l23.9,23.9c0.1,0.1,0.1,0.4,0,0.5C25.2,49.6,25.1,49.6,25,49.6z M17.6,25l7.4,7.4l7.4-7.4
	L25,17.6L17.6,25z"/>
<g id="XMLID_406_">
</g>
<g id="XMLID_407_">
</g>
<g id="XMLID_408_">
</g>
<g id="XMLID_409_">
</g>
<g id="XMLID_410_">
</g>
<g id="XMLID_411_">
</g>
</svg>
