<?xml version="1.0" encoding="utf-8"?>
<!-- Generator: Adobe Illustrator 19.0.0, SVG Export Plug-In . SVG Version: 6.00 Build 0)  -->
<svg version="1.1" id="Layer_1" xmlns="http://www.w3.org/2000/svg" xmlns:xlink="http://www.w3.org/1999/xlink" x="0px" y="0px"
	 viewBox="0 0 119.5 115.1" style="enable-background:new 0 0 119.5 115.1;" xml:space="preserve">
<style type="text/css">
	.st0{fill:#121213;}
</style>
<g id="XMLID_237_">
	<g id="XMLID_301_">
		<circle id="XMLID_307_" class="st0" cx="36.5" cy="108.7" r="2.4"/>
		<circle id="XMLID_306_" class="st0" cx="52" cy="108.7" r="2.4"/>
		<circle id="XMLID_305_" class="st0" cx="67.5" cy="108.7" r="2.4"/>
		<circle id="XMLID_304_" class="st0" cx="83" cy="108.7" r="2.4"/>
	</g>
	<g id="XMLID_292_">
		<circle id="XMLID_299_" class="st0" cx="21" cy="94.1" r="2.4"/>
		<circle id="XMLID_298_" class="st0" cx="36.5" cy="94.1" r="2.4"/>
		<circle id="XMLID_297_" class="st0" cx="52" cy="94.1" r="2.4"/>
		<circle id="XMLID_296_" class="st0" cx="67.5" cy="94.1" r="2.4"/>
		<circle id="XMLID_295_" class="st0" cx="83" cy="94.1" r="2.4"/>
		<circle id="XMLID_294_" class="st0" cx="98.5" cy="94.1" r="2.4"/>
	</g>
	<g id="XMLID_283_">
		<circle id="XMLID_290_" class="st0" cx="21" cy="79.5" r="2.4"/>
		<circle id="XMLID_289_" class="st0" cx="36.5" cy="79.5" r="2.4"/>
		<circle id="XMLID_288_" class="st0" cx="52" cy="79.5" r="2.4"/>
		<circle id="XMLID_287_" class="st0" cx="67.5" cy="79.5" r="2.4"/>
		<circle id="XMLID_286_" class="st0" cx="83" cy="79.5" r="2.4"/>
		<circle id="XMLID_285_" class="st0" cx="98.5" cy="79.5" r="2.4"/>
	</g>
	<g id="XMLID_274_">
		<circle id="XMLID_282_" class="st0" cx="5.5" cy="64.8" r="2.4"/>
		<circle id="XMLID_281_" class="st0" cx="21" cy="64.8" r="2.4"/>
		<circle id="XMLID_280_" class="st0" cx="36.5" cy="64.8" r="2.4"/>
		<circle id="XMLID_279_" class="st0" cx="52" cy="64.8" r="2.4"/>
		<circle id="XMLID_278_" class="st0" cx="67.5" cy="64.8" r="2.4"/>
		<circle id="XMLID_277_" class="st0" cx="83" cy="64.8" r="2.4"/>
		<circle id="XMLID_276_" class="st0" cx="98.5" cy="64.8" r="2.4"/>
		<circle id="XMLID_275_" class="st0" cx="114" cy="64.8" r="2.4"/>
	</g>
	<g id="XMLID_265_">
		<circle id="XMLID_273_" class="st0" cx="5.5" cy="50.2" r="2.4"/>
		<circle id="XMLID_272_" class="st0" cx="21" cy="50.2" r="2.4"/>
		<circle id="XMLID_271_" class="st0" cx="36.5" cy="50.2" r="2.4"/>
		<circle id="XMLID_270_" class="st0" cx="52" cy="50.2" r="2.4"/>
		<circle id="XMLID_269_" class="st0" cx="67.5" cy="50.2" r="2.4"/>
		<circle id="XMLID_268_" class="st0" cx="83" cy="50.2" r="2.4"/>
		<circle id="XMLID_267_" class="st0" cx="98.5" cy="50.2" r="2.4"/>
		<circle id="XMLID_266_" class="st0" cx="114" cy="50.2" r="2.4"/>
	</g>
	<g id="XMLID_256_">
		<circle id="XMLID_263_" class="st0" cx="21" cy="35.6" r="2.4"/>
		<circle id="XMLID_262_" class="st0" cx="36.5" cy="35.6" r="2.4"/>
		<circle id="XMLID_261_" class="st0" cx="52" cy="35.6" r="2.4"/>
		<circle id="XMLID_260_" class="st0" cx="67.5" cy="35.6" r="2.4"/>
		<circle id="XMLID_259_" class="st0" cx="83" cy="35.6" r="2.4"/>
		<circle id="XMLID_258_" class="st0" cx="98.5" cy="35.6" r="2.4"/>
	</g>
	<g id="XMLID_247_">
		<circle id="XMLID_254_" class="st0" cx="21" cy="21" r="2.4"/>
		<circle id="XMLID_253_" class="st0" cx="36.5" cy="21" r="2.4"/>
		<circle id="XMLID_252_" class="st0" cx="52" cy="21" r="2.4"/>
		<circle id="XMLID_251_" class="st0" cx="67.5" cy="21" r="2.4"/>
		<circle id="XMLID_250_" class="st0" cx="83" cy="21" r="2.4"/>
		<circle id="XMLID_249_" class="st0" cx="98.5" cy="21" r="2.4"/>
	</g>
	<g id="XMLID_238_">
		<circle id="XMLID_244_" class="st0" cx="36.5" cy="6.3" r="2.4"/>
		<circle id="XMLID_243_" class="st0" cx="52" cy="6.3" r="2.4"/>
		<circle id="XMLID_242_" class="st0" cx="67.5" cy="6.3" r="2.4"/>
		<circle id="XMLID_241_" class="st0" cx="83" cy="6.3" r="2.4"/>
	</g>
</g>
<g id="XMLID_53_">
</g>
<g id="XMLID_54_">
</g>
<g id="XMLID_55_">
</g>
<g id="XMLID_56_">
</g>
<g id="XMLID_57_">
</g>
<g id="XMLID_58_">
</g>
</svg>
