<?xml version="1.0" encoding="utf-8"?>
<!-- Generator: Adobe Illustrator 19.0.0, SVG Export Plug-In . SVG Version: 6.00 Build 0)  -->
<svg version="1.1" id="Layer_1" xmlns="http://www.w3.org/2000/svg" xmlns:xlink="http://www.w3.org/1999/xlink" x="0px" y="0px"
	 viewBox="0 0 58 58" style="enable-background:new 0 0 58 58;" xml:space="preserve">
<style type="text/css">
	.st0{fill:#5D5E5E;}
</style>
<g id="XMLID_712_">
	<g id="XMLID_721_">
		<path id="XMLID_190_" class="st0" d="M29,57.1c-0.1,0-0.1,0-0.2-0.1L1,29.2c-0.1-0.1-0.1-0.3,0-0.4L28.8,1c0.1-0.1,0.3-0.1,0.4,0
			L57,28.8c0.1,0.1,0.1,0.3,0,0.4L29.2,57C29.1,57.1,29.1,57.1,29,57.1z M1.6,29L29,56.4L56.4,29L29,1.6L1.6,29z"/>
	</g>
	<g id="XMLID_720_">
		<path id="XMLID_187_" class="st0" d="M29,47.7c-0.1,0-0.1,0-0.2-0.1L10.4,29.2c-0.1-0.1-0.1-0.3,0-0.4l18.4-18.4
			c0.1-0.1,0.3-0.1,0.4,0l18.4,18.4c0.1,0.1,0.1,0.3,0,0.4L29.2,47.6C29.1,47.6,29.1,47.7,29,47.7z M11,29l18,18l18-18L29,11L11,29z
			"/>
	</g>
	<g id="XMLID_719_">
		<path id="XMLID_184_" class="st0" d="M29,38.3c-0.1,0-0.1,0-0.2-0.1l-9-9c-0.1-0.1-0.1-0.3,0-0.4l9-9c0.1-0.1,0.3-0.1,0.4,0l9,9
			c0.1,0.1,0.1,0.1,0.1,0.2s0,0.1-0.1,0.2l-9,9C29.1,38.2,29.1,38.3,29,38.3z M20.4,29l8.6,8.6l8.6-8.6L29,20.4L20.4,29z"/>
	</g>
</g>
<g id="XMLID_183_">
</g>
<g id="XMLID_193_">
</g>
<g id="XMLID_194_">
</g>
<g id="XMLID_195_">
</g>
<g id="XMLID_196_">
</g>
<g id="XMLID_197_">
</g>
</svg>
