<?xml version="1.0" encoding="utf-8"?>
<!-- Generator: Adobe Illustrator 19.0.0, SVG Export Plug-In . SVG Version: 6.00 Build 0)  -->
<svg version="1.1" id="Layer_1" xmlns="http://www.w3.org/2000/svg" xmlns:xlink="http://www.w3.org/1999/xlink" x="0px" y="0px"
	 viewBox="0 0 144 130" style="enable-background:new 0 0 144 130;" xml:space="preserve">
<style type="text/css">
	.st0{fill:#00213D;}
	.st1{fill:#F47D55;}
</style>
<g>
	<g>
		<path id="XMLID_417_" class="st0" d="M142.2,65.5H72c-0.2,0-0.3-0.1-0.4-0.3L36.5,4.5c-0.1-0.2-0.1-0.3,0-0.5s0.3-0.3,0.4-0.3
			h70.2c0.2,0,0.3,0.1,0.4,0.3l35.1,60.8c0.1,0.2,0.1,0.3,0,0.5S142.4,65.5,142.2,65.5z M72.3,64.5h69L106.8,4.7h-69L72.3,64.5z"/>
	</g>
	<g>
		<path id="XMLID_414_" class="st0" d="M107.1,126.3H36.9c-0.2,0-0.3-0.1-0.4-0.3s-0.1-0.3,0-0.5l35.1-60.8c0.1-0.2,0.3-0.3,0.4-0.3
			h70.2c0.2,0,0.3,0.1,0.4,0.3s0.1,0.3,0,0.5L107.5,126C107.4,126.2,107.3,126.3,107.1,126.3z M37.8,125.3h69l34.5-59.8h-69
			L37.8,125.3z"/>
	</g>
	<g>
		<polygon id="XMLID_365_" class="st1" points="51.2,29 92.8,29 113.6,65 92.8,101 51.2,101 30.4,65 		"/>
	</g>
	<g>
		<path id="XMLID_411_" class="st0" d="M107.1,126.3H36.9c-0.2,0-0.3-0.1-0.4-0.3L1.4,65.3c-0.1-0.2-0.1-0.3,0-0.5L36.5,4
			c0.1-0.2,0.3-0.3,0.4-0.3h70.2c0.2,0,0.3,0.1,0.4,0.3l35.1,60.8c0.1,0.2,0.1,0.3,0,0.5L107.5,126
			C107.4,126.2,107.3,126.3,107.1,126.3z M37.2,125.3h69.6L141.6,65L106.8,4.7H37.2L2.4,65L37.2,125.3z"/>
	</g>
	<g>
		<path id="XMLID_408_" class="st0" d="M107.1,126.3c-0.2,0-0.3-0.1-0.4-0.3L71.6,65.3c-0.1-0.2-0.1-0.3,0-0.5L106.7,4
			c0.2-0.3,0.7-0.3,0.9,0l35.1,60.8c0.1,0.2,0.1,0.3,0,0.5L107.5,126C107.4,126.2,107.3,126.3,107.1,126.3z M72.6,65l34.5,59.8
			L141.6,65L107.1,5.2L72.6,65z"/>
	</g>
	<g>
		<path id="XMLID_366_" class="st0" d="M107.1,126.3H36.9c-0.2,0-0.3-0.1-0.4-0.3L1.4,65.3c-0.1-0.2-0.1-0.3,0-0.5s0.3-0.3,0.4-0.3
			H72c0.2,0,0.3,0.1,0.4,0.3l35.1,60.8c0.1,0.2,0.1,0.3,0,0.5S107.3,126.3,107.1,126.3z M37.2,125.3h69L71.7,65.5h-69L37.2,125.3z"
			/>
	</g>
</g>
<g id="XMLID_459_">
</g>
<g id="XMLID_460_">
</g>
<g id="XMLID_461_">
</g>
<g id="XMLID_462_">
</g>
<g id="XMLID_463_">
</g>
<g id="XMLID_464_">
</g>
</svg>
