<?xml version="1.0" encoding="utf-8"?>
<!-- Generator: Adobe Illustrator 19.0.0, SVG Export Plug-In . SVG Version: 6.00 Build 0)  -->
<svg version="1.1" id="Layer_1" xmlns="http://www.w3.org/2000/svg" xmlns:xlink="http://www.w3.org/1999/xlink" x="0px" y="0px"
	 viewBox="0 0 100 48" style="enable-background:new 0 0 100 48;" xml:space="preserve">
<style type="text/css">
	.st0{fill:#5D5E5E;}
</style>
<g id="XMLID_809_">
	<g id="XMLID_813_">
		<path id="XMLID_187_" class="st0" d="M17.5,14.6c-0.1,0-0.3,0-0.4-0.1L1,2C0.7,1.8,0.6,1.4,0.8,1.1C1,0.9,1.4,0.8,1.7,1l15.9,12.2
			L33.4,1c0.2-0.2,0.5-0.2,0.7,0L50,13.2L65.9,1c0.2-0.2,0.5-0.2,0.7,0l15.9,12.2L98.3,1c0.3-0.2,0.6-0.2,0.8,0.1
			C99.4,1.4,99.3,1.8,99,2L82.8,14.4c-0.2,0.2-0.5,0.2-0.7,0L66.2,2.2L50.4,14.4c-0.2,0.2-0.5,0.2-0.7,0L33.8,2.2L17.9,14.4
			C17.8,14.5,17.7,14.6,17.5,14.6z"/>
	</g>
	<g id="XMLID_812_">
		<path id="XMLID_186_" class="st0" d="M17.5,25.4c-0.1,0-0.3,0-0.4-0.1L1,12.8c-0.3-0.2-0.3-0.6-0.1-0.8c0.2-0.3,0.6-0.3,0.8-0.1
			l15.9,12.2l15.9-12.2c0.2-0.2,0.5-0.2,0.7,0L50,24.1l15.9-12.2c0.2-0.2,0.5-0.2,0.7,0l15.9,12.2l15.9-12.2
			c0.3-0.2,0.6-0.2,0.8,0.1c0.2,0.3,0.2,0.6-0.1,0.8L82.8,25.3c-0.2,0.2-0.5,0.2-0.7,0L66.2,13.1L50.4,25.3c-0.2,0.2-0.5,0.2-0.7,0
			L33.8,13.1L17.9,25.3C17.8,25.4,17.7,25.4,17.5,25.4z"/>
	</g>
	<g id="XMLID_811_">
		<path id="XMLID_185_" class="st0" d="M17.5,36.3c-0.1,0-0.3,0-0.4-0.1L1,23.7c-0.3-0.2-0.3-0.6-0.1-0.8c0.2-0.3,0.6-0.3,0.8-0.1
			l15.9,12.2l15.9-12.2c0.2-0.2,0.5-0.2,0.7,0L50,34.9l15.9-12.2c0.2-0.2,0.5-0.2,0.7,0l15.9,12.2l15.9-12.2
			c0.3-0.2,0.6-0.2,0.8,0.1c0.2,0.3,0.2,0.6-0.1,0.8L82.8,36.1c-0.2,0.2-0.5,0.2-0.7,0L66.2,23.9L50.4,36.1c-0.2,0.2-0.5,0.2-0.7,0
			L33.8,23.9L17.9,36.1C17.8,36.2,17.7,36.3,17.5,36.3z"/>
	</g>
	<g id="XMLID_810_">
		<path id="XMLID_184_" class="st0" d="M17.5,47.1c-0.1,0-0.3,0-0.4-0.1L1,34.5c-0.3-0.2-0.3-0.6-0.1-0.8c0.2-0.3,0.6-0.3,0.8-0.1
			l15.9,12.2l15.9-12.2c0.2-0.2,0.5-0.2,0.7,0L50,45.7l15.9-12.2c0.2-0.2,0.5-0.2,0.7,0l15.9,12.2l15.9-12.2
			c0.3-0.2,0.6-0.2,0.8,0.1c0.2,0.3,0.2,0.6-0.1,0.8L82.8,47c-0.2,0.2-0.5,0.2-0.7,0L66.2,34.8L50.4,47c-0.2,0.2-0.5,0.2-0.7,0
			L33.8,34.8L17.9,47C17.8,47.1,17.7,47.1,17.5,47.1z"/>
	</g>
</g>
<g id="XMLID_291_">
</g>
<g id="XMLID_292_">
</g>
<g id="XMLID_293_">
</g>
<g id="XMLID_294_">
</g>
<g id="XMLID_295_">
</g>
<g id="XMLID_296_">
</g>
</svg>
