<?xml version="1.0" encoding="utf-8"?>
<!-- Generator: Adobe Illustrator 19.0.0, SVG Export Plug-In . SVG Version: 6.00 Build 0)  -->
<svg version="1.1" id="Layer_1" xmlns="http://www.w3.org/2000/svg" xmlns:xlink="http://www.w3.org/1999/xlink" x="0px" y="0px"
	 viewBox="0 0 68.7 70" style="enable-background:new 0 0 68.7 70;" xml:space="preserve">
<style type="text/css">
	.st0{fill:none;stroke:#121213;stroke-width:0.5;stroke-linecap:round;stroke-linejoin:round;stroke-miterlimit:10;}
	.st1{fill:none;stroke:#40BEAD;stroke-width:0.5;stroke-linecap:round;stroke-linejoin:round;stroke-miterlimit:10;}
</style>
<g id="XMLID_366_">
	<g id="XMLID_402_">
		<circle id="XMLID_410_" class="st0" cx="2.4" cy="2.4" r="1.4"/>
		<circle id="XMLID_409_" class="st0" cx="2.4" cy="11.3" r="1.4"/>
		<circle id="XMLID_408_" class="st1" cx="2.4" cy="20.3" r="1.4"/>
		<circle id="XMLID_407_" class="st0" cx="2.4" cy="29.2" r="1.4"/>
		<circle id="XMLID_406_" class="st0" cx="2.4" cy="38.2" r="1.4"/>
		<circle id="XMLID_405_" class="st0" cx="2.4" cy="47.1" r="1.4"/>
		<circle id="XMLID_404_" class="st0" cx="2.4" cy="56.1" r="1.4"/>
		<circle id="XMLID_403_" class="st0" cx="2.4" cy="65" r="1.4"/>
	</g>
	<g id="XMLID_394_">
		<circle id="XMLID_401_" class="st0" cx="10.8" cy="2.4" r="1.4"/>
		<circle id="XMLID_400_" class="st0" cx="10.8" cy="11.3" r="1.4"/>
		<circle id="XMLID_399_" class="st1" cx="10.8" cy="20.3" r="1.4"/>
		<circle id="XMLID_398_" class="st0" cx="10.8" cy="29.2" r="1.4"/>
		<circle id="XMLID_397_" class="st0" cx="10.8" cy="38.2" r="1.4"/>
		<circle id="XMLID_396_" class="st0" cx="10.8" cy="47.1" r="1.4"/>
		<circle id="XMLID_395_" class="st0" cx="10.8" cy="56.1" r="1.4"/>
	</g>
	<g id="XMLID_387_">
		<circle id="XMLID_393_" class="st1" cx="19.3" cy="2.4" r="1.4"/>
		<circle id="XMLID_392_" class="st1" cx="19.3" cy="11.3" r="1.4"/>
		<circle id="XMLID_391_" class="st1" cx="19.3" cy="20.3" r="1.4"/>
		<circle id="XMLID_390_" class="st1" cx="19.3" cy="29.2" r="1.4"/>
		<circle id="XMLID_389_" class="st1" cx="19.3" cy="38.2" r="1.4"/>
		<circle id="XMLID_388_" class="st1" cx="19.3" cy="47.1" r="1.4"/>
	</g>
	<g id="XMLID_381_">
		<circle id="XMLID_386_" class="st0" cx="27.7" cy="2.4" r="1.4"/>
		<circle id="XMLID_385_" class="st0" cx="27.7" cy="11.3" r="1.4"/>
		<circle id="XMLID_384_" class="st1" cx="27.7" cy="20.3" r="1.4"/>
		<circle id="XMLID_383_" class="st0" cx="27.7" cy="29.2" r="1.4"/>
		<circle id="XMLID_382_" class="st0" cx="27.7" cy="38.2" r="1.4"/>
	</g>
	<g id="XMLID_376_">
		<circle id="XMLID_380_" class="st0" cx="36.2" cy="2.4" r="1.4"/>
		<circle id="XMLID_379_" class="st0" cx="36.2" cy="11.3" r="1.4"/>
		<circle id="XMLID_378_" class="st1" cx="36.2" cy="20.3" r="1.4"/>
		<circle id="XMLID_377_" class="st0" cx="36.2" cy="29.2" r="1.4"/>
	</g>
	<g id="XMLID_372_">
		<circle id="XMLID_375_" class="st0" cx="44.6" cy="2.4" r="1.4"/>
		<circle id="XMLID_374_" class="st0" cx="44.6" cy="11.3" r="1.4"/>
		<circle id="XMLID_373_" class="st1" cx="44.6" cy="20.3" r="1.4"/>
	</g>
	<g id="XMLID_369_">
		<circle id="XMLID_371_" class="st0" cx="53" cy="2.4" r="1.4"/>
		<circle id="XMLID_370_" class="st0" cx="53" cy="11.3" r="1.4"/>
	</g>
	<g id="XMLID_367_">
		<circle id="XMLID_368_" class="st0" cx="61.5" cy="2.4" r="1.4"/>
	</g>
</g>
<g id="XMLID_105_">
</g>
<g id="XMLID_106_">
</g>
<g id="XMLID_107_">
</g>
<g id="XMLID_108_">
</g>
<g id="XMLID_109_">
</g>
<g id="XMLID_110_">
</g>
</svg>
