<?xml version="1.0" encoding="utf-8"?>
<!-- Generator: Adobe Illustrator 19.0.0, SVG Export Plug-In . SVG Version: 6.00 Build 0)  -->
<svg version="1.1" id="Layer_1" xmlns="http://www.w3.org/2000/svg" xmlns:xlink="http://www.w3.org/1999/xlink" x="0px" y="0px"
	 viewBox="0 0 146.6 134.7" style="enable-background:new 0 0 146.6 134.7;" xml:space="preserve">
<style type="text/css">
	.st0{fill:none;stroke:#121213;stroke-width:1.1786;stroke-linecap:round;stroke-linejoin:round;stroke-miterlimit:10;}
</style>
<g id="XMLID_53_">
	<g id="XMLID_117_">
		<circle id="XMLID_128_" class="st0" cx="7.3" cy="129.6" r="2.9"/>
		<circle id="XMLID_124_" class="st0" cx="26.2" cy="129.6" r="2.9"/>
		<circle id="XMLID_123_" class="st0" cx="45" cy="129.6" r="2.9"/>
		<circle id="XMLID_122_" class="st0" cx="63.9" cy="129.6" r="2.9"/>
		<circle id="XMLID_121_" class="st0" cx="82.7" cy="129.6" r="2.9"/>
		<circle id="XMLID_120_" class="st0" cx="101.6" cy="129.6" r="2.9"/>
		<circle id="XMLID_119_" class="st0" cx="120.5" cy="129.6" r="2.9"/>
		<circle id="XMLID_118_" class="st0" cx="139.3" cy="129.6" r="2.9"/>
	</g>
	<g id="XMLID_108_">
		<circle id="XMLID_116_" class="st0" cx="7.3" cy="111.8" r="2.9"/>
		<circle id="XMLID_115_" class="st0" cx="26.2" cy="111.8" r="2.9"/>
		<circle id="XMLID_114_" class="st0" cx="45" cy="111.8" r="2.9"/>
		<circle id="XMLID_113_" class="st0" cx="63.9" cy="111.8" r="2.9"/>
		<circle id="XMLID_112_" class="st0" cx="82.7" cy="111.8" r="2.9"/>
		<circle id="XMLID_111_" class="st0" cx="101.6" cy="111.8" r="2.9"/>
		<circle id="XMLID_110_" class="st0" cx="120.5" cy="111.8" r="2.9"/>
		<circle id="XMLID_109_" class="st0" cx="139.3" cy="111.8" r="2.9"/>
	</g>
	<g id="XMLID_99_">
		<circle id="XMLID_107_" class="st0" cx="7.3" cy="94" r="2.9"/>
		<circle id="XMLID_106_" class="st0" cx="26.2" cy="94" r="2.9"/>
		<circle id="XMLID_105_" class="st0" cx="45" cy="94" r="2.9"/>
		<circle id="XMLID_104_" class="st0" cx="63.9" cy="94" r="2.9"/>
		<circle id="XMLID_103_" class="st0" cx="82.7" cy="94" r="2.9"/>
		<circle id="XMLID_102_" class="st0" cx="101.6" cy="94" r="2.9"/>
		<circle id="XMLID_101_" class="st0" cx="120.5" cy="94" r="2.9"/>
		<circle id="XMLID_100_" class="st0" cx="139.3" cy="94" r="2.9"/>
	</g>
	<g id="XMLID_90_">
		<circle id="XMLID_98_" class="st0" cx="7.3" cy="76.3" r="2.9"/>
		<circle id="XMLID_97_" class="st0" cx="26.2" cy="76.3" r="2.9"/>
		<circle id="XMLID_96_" class="st0" cx="45" cy="76.3" r="2.9"/>
		<circle id="XMLID_95_" class="st0" cx="63.9" cy="76.3" r="2.9"/>
		<circle id="XMLID_94_" class="st0" cx="82.7" cy="76.3" r="2.9"/>
		<circle id="XMLID_93_" class="st0" cx="101.6" cy="76.3" r="2.9"/>
		<circle id="XMLID_92_" class="st0" cx="120.5" cy="76.3" r="2.9"/>
		<circle id="XMLID_91_" class="st0" cx="139.3" cy="76.3" r="2.9"/>
	</g>
	<g id="XMLID_81_">
		<circle id="XMLID_89_" class="st0" cx="7.3" cy="58.5" r="2.9"/>
		<circle id="XMLID_88_" class="st0" cx="26.2" cy="58.5" r="2.9"/>
		<circle id="XMLID_87_" class="st0" cx="45" cy="58.5" r="2.9"/>
		<circle id="XMLID_86_" class="st0" cx="63.9" cy="58.5" r="2.9"/>
		<circle id="XMLID_85_" class="st0" cx="82.7" cy="58.5" r="2.9"/>
		<circle id="XMLID_84_" class="st0" cx="101.6" cy="58.5" r="2.9"/>
		<circle id="XMLID_83_" class="st0" cx="120.5" cy="58.5" r="2.9"/>
		<circle id="XMLID_82_" class="st0" cx="139.3" cy="58.5" r="2.9"/>
	</g>
	<g id="XMLID_54_">
		<circle id="XMLID_61_" class="st0" cx="7.3" cy="40.7" r="2.9"/>
		<circle id="XMLID_60_" class="st0" cx="26.2" cy="40.7" r="2.9"/>
		<circle id="XMLID_59_" class="st0" cx="45" cy="40.7" r="2.9"/>
		<circle id="XMLID_58_" class="st0" cx="63.9" cy="40.7" r="2.9"/>
		<circle id="XMLID_57_" class="st0" cx="82.7" cy="40.7" r="2.9"/>
		<circle id="XMLID_56_" class="st0" cx="101.6" cy="40.7" r="2.9"/>
		<circle id="XMLID_55_" class="st0" cx="120.5" cy="40.7" r="2.9"/>
		<circle id="XMLID_62_" class="st0" cx="139.3" cy="40.7" r="2.9"/>
	</g>
	<g id="XMLID_63_">
		<circle id="XMLID_70_" class="st0" cx="7.3" cy="22.9" r="2.9"/>
		<circle id="XMLID_69_" class="st0" cx="26.2" cy="22.9" r="2.9"/>
		<circle id="XMLID_68_" class="st0" cx="45" cy="22.9" r="2.9"/>
		<circle id="XMLID_67_" class="st0" cx="63.9" cy="22.9" r="2.9"/>
		<circle id="XMLID_66_" class="st0" cx="82.7" cy="22.9" r="2.9"/>
		<circle id="XMLID_65_" class="st0" cx="101.6" cy="22.9" r="2.9"/>
		<circle id="XMLID_64_" class="st0" cx="120.5" cy="22.9" r="2.9"/>
		<circle id="XMLID_71_" class="st0" cx="139.3" cy="22.9" r="2.9"/>
	</g>
	<g id="XMLID_72_">
		<circle id="XMLID_79_" class="st0" cx="7.3" cy="5.1" r="2.9"/>
		<circle id="XMLID_78_" class="st0" cx="26.2" cy="5.1" r="2.9"/>
		<circle id="XMLID_77_" class="st0" cx="45" cy="5.1" r="2.9"/>
		<circle id="XMLID_76_" class="st0" cx="63.9" cy="5.1" r="2.9"/>
		<circle id="XMLID_75_" class="st0" cx="82.7" cy="5.1" r="2.9"/>
		<circle id="XMLID_74_" class="st0" cx="101.6" cy="5.1" r="2.9"/>
		<circle id="XMLID_73_" class="st0" cx="120.5" cy="5.1" r="2.9"/>
		<circle id="XMLID_80_" class="st0" cx="139.3" cy="5.1" r="2.9"/>
	</g>
</g>
<g id="XMLID_165_">
</g>
<g id="XMLID_166_">
</g>
<g id="XMLID_167_">
</g>
<g id="XMLID_168_">
</g>
<g id="XMLID_169_">
</g>
<g id="XMLID_170_">
</g>
</svg>
