<?xml version="1.0" encoding="utf-8"?>
<!-- Generator: Adobe Illustrator 19.0.0, SVG Export Plug-In . SVG Version: 6.00 Build 0)  -->
<svg version="1.1" id="Layer_1" xmlns="http://www.w3.org/2000/svg" xmlns:xlink="http://www.w3.org/1999/xlink" x="0px" y="0px"
	 viewBox="0 0 30 30" style="enable-background:new 0 0 30 30;" xml:space="preserve">
<style type="text/css">
	.st0{fill:#5D5E5E;}
</style>
<g id="XMLID_723_">
	<g id="XMLID_725_">
		<path id="XMLID_185_" class="st0" d="M15,29.9c-0.3,0-0.6-0.1-0.8-0.3h0L0.4,15.8c-0.2-0.2-0.3-0.5-0.3-0.8c0-0.3,0.1-0.6,0.4-0.8
			L14.2,0.4c0.5-0.5,1.2-0.5,1.7,0l13.7,13.7c0.2,0.2,0.3,0.5,0.3,0.8c0,0.3-0.1,0.6-0.3,0.8L15.8,29.5C15.6,29.8,15.3,29.9,15,29.9
			z M14.7,29c0.2,0.2,0.5,0.2,0.7,0l13.7-13.7c0.1-0.1,0.1-0.2,0.1-0.3s-0.1-0.3-0.1-0.3L15.3,0.9c-0.2-0.2-0.5-0.2-0.7,0L0.9,14.7
			c-0.1,0.1-0.1,0.2-0.1,0.3s0.1,0.3,0.1,0.3L14.7,29z"/>
	</g>
	<g id="XMLID_724_">
		<path id="XMLID_184_" class="st0" d="M14.7,21.1l-5.8-5.8c-0.1-0.1-0.1-0.4,0-0.5l5.8-5.8c0.1-0.1,0.4-0.1,0.5,0l5.8,5.8
			c0.1,0.1,0.1,0.4,0,0.5l-5.8,5.8C15.1,21.2,14.9,21.2,14.7,21.1z"/>
	</g>
</g>
<g id="XMLID_343_">
</g>
<g id="XMLID_344_">
</g>
<g id="XMLID_345_">
</g>
<g id="XMLID_346_">
</g>
<g id="XMLID_347_">
</g>
<g id="XMLID_348_">
</g>
</svg>
